# xmcd
#
# Track frame offsets: 
#        150
#        4945
#        27754
#        41453
#        60579
#        67085
#        91421
#        107427
#        122923
#        129100
#        151738
#        177339
#        191243
#        197167
#        223561
#        237464
#        257686
#        265389
#        291418
#        302649
#
# Disc length: 4330 seconds
#
# Revision: 1
# Processed by: cddbd v1.5.2PL0 Copyright (c) Steve Scherf et al.
# Submitted via: ExactAudioCopy v0.99pb4
#
DISCID=2010e814
DTITLE=Hank Williams - Mother's Best [CD2]
DYEAR=1951
DGENRE=Country
TTITLE0=Mother's Best 2-A2
TTITLE1=Mansion On The Hill
TTITLE2=I Like That Kind (Audrey)
TTITLE3=How Can You Refuse Him Now (Audrey)
TTITLE4=Mother's Best 2-B1
TTITLE5=Everything's OK
TTITLE6=Why Should I Cry (Audrey)
TTITLE7=I Heard My Mother Prayin'For Me
TTITLE8=Mother's Best 2-B2
TTITLE9=Nobody's Lonesome For Me
TTITLE10=Tight Wad Daddy (Audrey)
TTITLE11=I'll Have A New Body
TTITLE12=Mother's Best 3-A1
TTITLE13=Move It On Over
TTITLE14=I'm Satisfied With Life (Audrey)
TTITLE15=I Saw The Light
TTITLE16=Mother's Best 3-A2
TTITLE17=Seaman's Blues
TTITLE18=Blues In My Mind (Audrey)
TTITLE19=Something Got A Hold Of Me
EXTD=
EXTT0=
EXTT1=
EXTT2=
EXTT3=
EXTT4=
EXTT5=
EXTT6=
EXTT7=
EXTT8=
EXTT9=
EXTT10=
EXTT11=
EXTT12=
EXTT13=
EXTT14=
EXTT15=
EXTT16=
EXTT17=
EXTT18=
EXTT19=
PLAYORDER=
